<svg width="1920" height="889" viewBox="0 0 1920 889" fill="none" xmlns="http://www.w3.org/2000/svg">
<g clip-path="url(#clip0_199_616)">
<mask id="mask0_199_616" style="mask-type:luminance" maskUnits="userSpaceOnUse" x="0" y="0" width="1920" height="889">
<path d="M1920 0H0V889H1920V0Z" fill="white"/>
</mask>
<g mask="url(#mask0_199_616)">
<mask id="mask1_199_616" style="mask-type:luminance" maskUnits="userSpaceOnUse" x="0" y="0" width="1920" height="889">
<path d="M1920 0H0V889H1920V0Z" fill="white"/>
</mask>
<g mask="url(#mask1_199_616)">
<path d="M85.5546 500.177C68.0092 488.529 52.6972 501.855 26.829 505.596C-11.1279 511.092 -19.8748 532.82 -8.60095 546.528C2.67525 560.229 25.6758 552.819 40.6493 563.788C40.6956 563.826 40.7442 563.857 40.7905 563.895C40.839 563.926 40.8876 563.957 40.9362 563.989C56.3332 574.362 57.1533 598.509 73.8665 604.471C90.5797 610.433 108.059 594.833 100.363 557.262C95.1149 531.652 102.46 512.731 85.5546 500.177Z" fill="url(#paint0_linear_199_616)" fill-opacity="0.2"/>
<path d="M52.9554 458.195C53.2758 477.989 43.1955 494.202 30.4387 494.414C17.6752 494.623 7.06908 478.746 6.74864 458.952C6.4282 439.158 16.5085 422.945 29.2654 422.733C42.0222 422.521 52.6283 438.398 52.9554 458.195Z" fill="url(#paint1_linear_199_616)" fill-opacity="0.2"/>
<path d="M136.102 516.619C117.368 523.021 105.531 538.003 109.661 550.083C113.793 562.157 132.32 566.759 151.055 560.352C169.789 553.95 181.626 538.968 177.496 526.888C173.366 514.807 154.831 510.209 136.102 516.619Z" fill="url(#paint2_linear_199_616)" fill-opacity="0.2"/>
<path d="M113.219 451.315C104.394 470.238 87.3583 480.969 75.1586 475.279C62.9588 469.588 60.2212 449.641 69.0456 430.718C77.87 411.796 94.9057 401.065 107.106 406.755C119.308 412.439 122.043 432.393 113.219 451.315Z" fill="url(#paint3_linear_199_616)" fill-opacity="0.2"/>
<path d="M122.146 457.583C107.332 472.297 103.017 491.963 112.506 501.511C121.988 511.057 141.686 506.875 156.499 492.161C171.313 477.447 175.628 457.781 166.142 448.226C156.65 438.685 136.96 442.869 122.146 457.583Z" fill="url(#paint4_linear_199_616)" fill-opacity="0.2"/>
<path d="M274.566 623.009C264.951 603.091 243.987 606.933 218.618 596.473C181.392 581.119 161.857 596.067 164.708 614.478C167.559 632.889 192.298 638.509 199.956 656.433C199.983 656.486 200.007 656.546 200.026 656.597C200.053 656.651 200.079 656.704 200.103 656.764C208.458 674.377 196.275 696.627 208.179 710.963C220.083 725.298 244.227 720.559 257.384 682.509C266.354 656.561 283.118 643.402 274.566 623.009Z" fill="url(#paint5_linear_199_616)" fill-opacity="0.2"/>
<path d="M267.59 567.637C257.286 585.689 239.503 594.94 227.861 588.3C216.219 581.66 215.14 561.639 225.444 543.587C235.748 525.535 253.532 516.284 265.173 522.924C276.815 529.564 277.896 549.578 267.59 567.637Z" fill="url(#paint6_linear_199_616)" fill-opacity="0.2"/>
<path d="M311.425 664.919C291.077 660.675 272.362 667.874 269.627 680.993C266.893 694.112 281.169 708.187 301.52 712.423C321.868 716.667 340.583 709.469 343.317 696.349C346.052 683.23 331.775 669.156 311.425 664.919Z" fill="url(#paint7_linear_199_616)" fill-opacity="0.2"/>
<path d="M325.755 593.697C343.853 581.326 352.059 561.837 344.083 550.169C336.107 538.5 314.969 539.069 296.87 551.44C278.772 563.812 270.566 583.3 278.542 594.969C286.518 606.637 307.656 606.068 325.755 593.697Z" fill="url(#paint8_linear_199_616)" fill-opacity="0.2"/>
<path d="M330.421 604.125C309.164 609.487 294.734 624.945 298.197 638.647C301.653 652.347 321.688 659.108 342.945 653.746C364.202 648.385 378.629 632.934 375.169 619.225C371.707 605.523 351.678 598.763 330.421 604.125Z" fill="url(#paint9_linear_199_616)" fill-opacity="0.2"/>
<path d="M370.959 511.64L368.961 507.933C379.759 502.112 387.041 491.346 389.484 477.603C392.76 459.152 386.982 438.316 374.767 424.526C352.944 399.883 317.823 390.956 286.613 384.513C284.167 384.01 281.731 383.518 279.311 383.068C280.424 390.327 280.44 397.244 279.351 403.78C276.447 421.263 265.047 435.61 250.307 440.347C241.974 443.018 232.194 442.035 224.064 437.708C216.877 433.87 211.806 427.865 209.783 420.808C204.686 403.026 219.234 385.014 236.011 379.347C248.146 375.251 260.904 375.801 274.031 377.88C272.616 371.775 270.43 365.417 267.467 358.84C249.458 318.871 211.55 288.767 168.542 280.274C125.536 271.774 79.0305 285.205 47.1679 315.317L44.2773 312.261C77.1097 281.228 125.039 267.392 169.354 276.151C213.687 284.9 252.738 315.931 271.301 357.122C274.654 364.556 277.053 371.748 278.502 378.647C281.468 379.186 284.455 379.776 287.452 380.399C319.318 386.975 355.224 396.139 377.905 421.745C390.943 436.464 397.111 458.681 393.621 478.353C390.955 493.366 382.906 505.196 370.959 511.64ZM274.913 382.281C261.8 380.096 249.125 379.345 237.354 383.328C222.411 388.381 209.39 404.175 213.822 419.64C215.526 425.591 219.864 430.682 226.034 433.984C233.153 437.784 241.733 438.663 248.997 436.333C262.046 432.139 272.571 418.782 275.18 403.085C276.272 396.565 276.178 389.614 274.913 382.281Z" fill="#707070" fill-opacity="0.2"/>
<path d="M2176.3 616.445C2137.4 638.001 2088.37 640.235 2047.67 622.303C1988.13 596.074 1953.12 533.826 1900 496.26C1847.31 458.994 1776.62 448.562 1715.42 469.02C1654.21 489.472 1604.01 540.309 1584.31 601.764C1571.03 643.192 1571.09 687.945 1558.15 729.473C1545.21 771.007 1512.68 811.992 1469.2 813.221C1406.48 814.986 1363.41 736.03 1300.7 738.158C1265.46 739.349 1236.55 766.652 1216.84 795.895C1197.13 825.138 1182.54 858.373 1157.3 882.999C1129.46 910.164 1091.68 923.972 1056.92 941.441C1022.16 958.911 987.287 983.499 975.47 1020.57C959.298 1071.3 994.48 1127.08 1041.61 1151.86C1088.74 1176.63 1144.34 1177.79 1197.59 1177.19C1358.26 1175.37 1518.58 1162.6 1678.75 1149.84C1764.12 1143.04 1850.28 1136.09 1932.18 1111.05C2048.2 1075.59 2152.71 1003.43 2226.98 907.507C2301.25 811.586 2344.95 692.35 2350.24 571.149C2352.03 530.014 2325.95 452.923 2273.2 492.086C2230.3 523.931 2228.94 587.277 2176.3 616.445Z" fill="url(#paint10_linear_199_616)" fill-opacity="0.3"/>
<path d="M1297.16 409.464C1284.06 420.552 1291.01 435.563 1288.07 456.663C1283.75 487.62 1298.77 499.404 1312.06 493.693C1325.35 487.98 1324.77 468.297 1336.75 459.061C1336.79 459.035 1336.83 459.001 1336.86 458.975C1336.9 458.945 1336.94 458.916 1336.97 458.885C1348.59 449.192 1367.68 454.031 1376.14 442.303C1384.61 430.574 1376.36 413.346 1345.21 410.838C1323.97 409.128 1310.83 399.083 1297.16 409.464Z" fill="#8FCB9B" fill-opacity="0.2"/>
<path d="M1256.9 425.447C1272.47 429.687 1282.87 441.261 1280.14 451.3C1277.4 461.333 1262.57 466.034 1247 461.789C1231.43 457.548 1221.03 445.974 1223.76 435.936C1226.49 425.902 1241.33 421.207 1256.9 425.447Z" fill="#8FCB9B" fill-opacity="0.2"/>
<path d="M1321.52 373.632C1322.27 389.749 1331.31 402.42 1341.7 401.929C1352.1 401.439 1359.9 387.975 1359.14 371.858C1358.38 355.742 1349.34 343.071 1338.95 343.561C1328.56 344.052 1320.76 357.515 1321.52 373.632Z" fill="#8FCB9B" fill-opacity="0.2"/>
<path d="M1265.2 376.709C1278.01 387.909 1282.54 403.686 1275.32 411.942C1268.1 420.198 1251.86 417.813 1239.05 406.606C1226.24 395.405 1221.71 379.628 1228.93 371.372C1236.15 363.116 1252.39 365.504 1265.2 376.709Z" fill="#8FCB9B" fill-opacity="0.2"/>
<path d="M1272.14 371.149C1280.29 386.087 1294.71 393.929 1304.33 388.675C1313.96 383.418 1315.16 367.05 1307.01 352.112C1298.86 337.174 1284.44 329.329 1274.81 334.586C1265.18 339.843 1263.98 356.214 1272.14 371.149Z" fill="#8FCB9B" fill-opacity="0.2"/>
<path d="M1436.24 289.413C1418.47 292.413 1416.72 309.696 1402.76 327.181C1382.28 352.832 1389.55 371.517 1404.6 373.47C1419.66 375.423 1429.68 357.331 1445.45 355.407C1445.5 355.4 1445.55 355.396 1445.6 355.389C1445.64 355.383 1445.7 355.373 1445.74 355.367C1461.42 352.825 1476.08 367.422 1490 361.355C1503.93 355.288 1505.7 335.322 1478.9 316.377C1460.64 303.464 1454.15 287.35 1436.24 289.413Z" fill="#8FCB9B" fill-opacity="0.2"/>
<path d="M1391.32 282.296C1403.11 294.459 1406.31 310.485 1398.47 318.088C1390.62 325.687 1374.71 321.989 1362.92 309.826C1351.12 297.662 1347.92 281.637 1355.76 274.033C1363.61 266.432 1379.52 270.132 1391.32 282.296Z" fill="#8FCB9B" fill-opacity="0.2"/>
<path d="M1477.41 270.08C1469.47 285.044 1470.85 301.328 1480.5 306.449C1490.15 311.571 1504.41 303.59 1512.35 288.624C1520.3 273.66 1518.91 257.376 1509.26 252.254C1499.62 247.135 1485.36 255.116 1477.41 270.08Z" fill="#8FCB9B" fill-opacity="0.2"/>
<path d="M1424.91 242.714C1430.47 259.69 1426.12 276.361 1415.18 279.956C1404.24 283.546 1390.85 272.7 1385.28 255.727C1379.71 238.751 1384.06 222.08 1395 218.485C1405.94 214.89 1419.33 225.741 1424.91 242.714Z" fill="#8FCB9B" fill-opacity="0.2"/>
<path d="M1434.15 241.403C1433.51 259.259 1442.33 274.064 1453.85 274.471C1465.36 274.88 1475.2 260.732 1475.83 242.876C1476.46 225.021 1467.64 210.216 1456.13 209.809C1444.62 209.404 1434.78 223.548 1434.15 241.403Z" fill="#8FCB9B" fill-opacity="0.2"/>
<path d="M1408.39 559.997C1403.28 562.791 1397.63 564.859 1391.65 566.071C1379.6 568.504 1368.13 566.965 1359.34 561.735C1349.06 555.619 1342.93 543.909 1344.42 533.255L1347.7 533.715C1346.39 543.083 1351.87 553.439 1361.03 558.889C1369.11 563.697 1379.75 565.096 1391 562.828C1406.89 559.623 1420.75 549.467 1427.16 536.33C1434.09 522.142 1431.83 504.107 1421.78 493.454C1411.16 482.189 1391.92 480.45 1380.63 489.727C1374.87 494.456 1371.5 502.207 1371.61 510.471C1371.71 518.006 1374.74 524.661 1379.91 528.771L1386.81 531.397L1385.62 534.49L1378.07 531.533C1371.98 526.814 1368.42 519.154 1368.3 510.515C1368.18 501.256 1372 492.531 1378.53 487.165C1391.31 476.661 1412.24 478.498 1424.19 491.183C1435.32 502.987 1437.77 522.151 1430.14 537.778C1425.61 547.062 1417.93 554.786 1408.39 559.997Z" fill="#8FCB9B" fill-opacity="0.2"/>
<path opacity="0.5" d="M-7.6989 53.9355L-15.7461 303.14C142.211 231.425 295.316 185.575 501.058 235.506C709.785 286.284 901.902 299.494 1103.88 224.946C1241.07 174.329 1381.83 168.866 1538.52 213.96C1719.84 269.243 1913.3 271.146 2095.64 219.44C2234.94 181.401 2375.22 136.138 2499.08 164.408L2500.03 134.914L-7.6989 53.9355Z" fill="url(#paint11_linear_199_616)"/>
<path d="M-6.67906 22.3145L-13.7295 240.651C144.228 168.936 296.929 135.584 502.671 185.515C711.398 236.293 903.111 262 1105.09 187.453C1242.28 136.836 1382.64 143.87 1539.33 188.964C1729.61 243.65 1904.83 259.067 2096.05 206.942C2235.34 168.903 2375.22 136.138 2499.07 164.408L2500.03 134.914L1248.25 29.6771L-6.67906 22.3145Z" fill="#8FCB9B"/>
<path d="M1921.61 -2.29395H-6.7627V111.198H1921.61V-2.29395Z" fill="#8FCB9B"/>
</g>
</g>
</g>
<defs>
<linearGradient id="paint0_linear_199_616" x1="44.5291" y1="495.501" x2="55.0434" y2="627.666" gradientUnits="userSpaceOnUse">
<stop stop-color="#707070"/>
<stop offset="1" stop-color="#FDFCFC"/>
</linearGradient>
<linearGradient id="paint1_linear_199_616" x1="29.852" y1="422.731" x2="40.8465" y2="507.824" gradientUnits="userSpaceOnUse">
<stop stop-color="#707070"/>
<stop offset="1" stop-color="#FDFCFC"/>
</linearGradient>
<linearGradient id="paint2_linear_199_616" x1="143.578" y1="513.726" x2="147.114" y2="573.275" gradientUnits="userSpaceOnUse">
<stop stop-color="#707070"/>
<stop offset="1" stop-color="#FDFCFC"/>
</linearGradient>
<linearGradient id="paint3_linear_199_616" x1="91.1323" y1="405.23" x2="100.467" y2="490.588" gradientUnits="userSpaceOnUse">
<stop stop-color="#707070"/>
<stop offset="1" stop-color="#FDFCFC"/>
</linearGradient>
<linearGradient id="paint4_linear_199_616" x1="139.323" y1="443.108" x2="145.648" y2="519.247" gradientUnits="userSpaceOnUse">
<stop stop-color="#707070"/>
<stop offset="1" stop-color="#FDFCFC"/>
</linearGradient>
<linearGradient id="paint5_linear_199_616" x1="220.681" y1="590.105" x2="235.263" y2="743.567" gradientUnits="userSpaceOnUse">
<stop stop-color="#707070"/>
<stop offset="1" stop-color="#FDFCFC"/>
</linearGradient>
<linearGradient id="paint6_linear_199_616" x1="246.517" y1="520.773" x2="255.097" y2="603.978" gradientUnits="userSpaceOnUse">
<stop stop-color="#707070"/>
<stop offset="1" stop-color="#FDFCFC"/>
</linearGradient>
<linearGradient id="paint7_linear_199_616" x1="306.473" y1="663.701" x2="309.834" y2="723.784" gradientUnits="userSpaceOnUse">
<stop stop-color="#707070"/>
<stop offset="1" stop-color="#FDFCFC"/>
</linearGradient>
<linearGradient id="paint8_linear_199_616" x1="311.313" y1="541.776" x2="316.608" y2="615.72" gradientUnits="userSpaceOnUse">
<stop stop-color="#707070"/>
<stop offset="1" stop-color="#FDFCFC"/>
</linearGradient>
<linearGradient id="paint9_linear_199_616" x1="336.682" y1="602.286" x2="340.333" y2="666.402" gradientUnits="userSpaceOnUse">
<stop stop-color="#707070"/>
<stop offset="1" stop-color="#FDFCFC"/>
</linearGradient>
<linearGradient id="paint10_linear_199_616" x1="1771" y1="419.5" x2="1723.5" y2="924" gradientUnits="userSpaceOnUse">
<stop stop-color="#D4D5A5"/>
<stop offset="1" stop-color="#FDFCFC"/>
</linearGradient>
<linearGradient id="paint11_linear_199_616" x1="-15.6558" y1="287.226" x2="4464.28" y2="180.764" gradientUnits="userSpaceOnUse">
<stop stop-color="#8FCB9B"/>
<stop offset="1" stop-color="#FDFCFC"/>
</linearGradient>
<clipPath id="clip0_199_616">
<rect width="1920" height="889" fill="white"/>
</clipPath>
</defs>
</svg>
