<svg width="293" height="262" viewBox="0 0 293 262" fill="none" xmlns="http://www.w3.org/2000/svg">
<path d="M117.03 3.94669C124.192 1.60678 131.811 0.636572 139.345 1.12167C150.388 1.72092 161.174 5.63028 170.163 12.0508C171.133 12.7641 172.189 13.4205 173.016 14.3336C174.443 15.9601 175.014 18.2715 174.5 20.3831C173.987 22.6659 172.189 24.6064 169.963 25.2912C167.794 25.9761 165.312 25.5195 163.571 24.0642C156.865 18.8993 148.704 15.6462 140.286 14.8472C137.204 14.5048 134.065 14.5048 130.984 14.8472C122.109 15.7318 113.52 19.2988 106.614 24.9773C98.8242 31.3407 93.1456 40.3009 90.9199 50.117C88.8653 59.0201 89.4931 68.551 92.8032 77.0831C96.2845 86.1573 102.762 94.0046 110.923 99.2551C117.03 103.164 124.078 105.59 131.269 106.275C134.065 106.617 136.919 106.617 139.687 106.303C148.39 105.561 156.808 102.223 163.714 96.8867C165.454 95.517 167.937 95.1175 170.049 95.8309C172.959 96.8296 175.042 99.94 174.671 103.022C174.5 104.82 173.559 106.532 172.132 107.616C166.653 111.896 160.432 115.178 153.812 117.29C145.28 120.029 136.091 120.742 127.217 119.515C117.372 118.146 107.898 114.208 99.9656 108.215C92.261 102.451 85.9832 94.775 81.8456 86.0717C77.7936 77.5396 75.8246 68.0088 76.167 58.5635C76.4809 46.9496 80.3332 35.4784 87.1247 26.0331C94.4297 15.7604 105.016 7.85604 117.03 3.94669Z" fill="#007CFF" stroke="#007CFF" stroke-width="0.026752"/>
<path opacity="0.4" d="M130.988 14.8472C134.07 14.5048 137.209 14.5048 140.291 14.8472C137.18 14.7616 134.099 14.7616 130.988 14.8472Z" fill="#001934" stroke="#001934" stroke-width="0.026752"/>
<path d="M200.525 20.1549C203.492 19.2703 206.974 20.6685 208.4 23.465C215.249 36.8481 218.245 52.1431 217.018 67.1243C216.162 77.7965 213.223 88.3261 208.286 97.8284C206.488 101.224 201.666 102.308 198.556 100.083C195.673 98.2279 194.732 94.0903 196.444 91.094C205.975 72.3748 206.06 49.1755 196.644 30.3991C195.788 28.8582 195.331 27.0319 195.759 25.2913C196.244 22.8658 198.156 20.8112 200.525 20.1549Z" fill="#6FBAF7" stroke="#6FBAF7" stroke-width="0.026752"/>
<path d="M116.112 28.1733C128.211 20.8682 144.562 21.068 156.319 29.0294C159.229 31.1695 159.829 35.7352 157.574 38.5602C155.548 41.3281 151.354 42.1557 148.471 40.3009C143.906 37.3903 138.37 36.1347 133.005 36.7625C127.641 37.3332 122.504 39.8158 118.738 43.6681C114.971 47.4062 112.517 52.4284 111.918 57.7075C111.375 61.9878 112.089 66.4108 113.858 70.3487C116.198 75.5422 120.45 79.851 125.643 82.248C130.951 84.7591 137.171 85.1586 142.764 83.4179C150.241 81.1351 156.433 74.9429 158.573 67.4381C153.208 67.4666 147.844 67.4381 142.479 67.4381C139.911 67.4381 137.428 65.8401 136.372 63.5287C135.06 60.8749 135.745 57.4221 137.97 55.4817C139.112 54.4545 140.624 53.7696 142.165 53.7125C150.269 53.6555 158.345 53.684 166.449 53.684C169.103 53.5984 171.671 55.2534 172.727 57.679C173.64 59.5623 173.354 61.7025 173.24 63.7285C172.527 72.5174 168.56 80.9924 162.283 87.2131C156.262 93.2627 148.129 97.172 139.625 98.0281C131.265 98.9412 122.618 96.9152 115.513 92.3781C108.351 87.8409 102.758 80.7927 100.018 72.7457C97.2218 64.6131 97.3645 55.5103 100.275 47.4347C103.129 39.4448 108.836 32.5392 116.112 28.1733Z" fill="#002CB8" stroke="#002CB8" stroke-width="0.026752"/>
<path d="M181.98 31.9115C184.919 31.1411 188.258 32.6534 189.628 35.3643C197.047 51.0588 197.047 70.0634 189.628 85.7579C188.686 87.6127 186.803 88.9824 184.72 89.3248C182.294 89.7529 179.697 88.7256 178.185 86.7852C176.616 84.7592 176.33 81.8486 177.472 79.5657C183.007 67.5523 182.922 53.1419 177.329 41.157C175.645 37.4759 178.042 32.7676 181.98 31.9115Z" fill="#6FBAF7" stroke="#6FBAF7" stroke-width="0.026752"/>
<path opacity="0.46" d="M131.273 106.275C134.098 106.332 136.895 106.332 139.691 106.303C136.923 106.617 134.07 106.617 131.273 106.275Z" fill="#001E3E" stroke="#001E3E" stroke-width="0.026752"/>
<path d="M246.297 195.864C246.569 194.777 247.655 193.962 248.816 194.011C251.04 194.011 253.263 193.986 255.486 194.011C256.77 193.962 257.956 195.098 257.956 196.382C258.006 202.904 257.931 209.425 257.981 215.921C261.217 213.007 265.416 211.327 269.714 210.907C274.58 210.413 279.718 211.253 283.844 213.995C289.006 217.354 291.847 223.456 292.316 229.458C292.465 235.238 292.366 241.019 292.39 246.799C292.366 250.998 292.44 255.222 292.341 259.421C292.02 260.484 290.933 261.175 289.846 261.126C287.697 261.126 285.523 261.15 283.374 261.126C282.213 261.175 281.126 260.311 280.879 259.199C280.904 251.69 280.879 244.18 280.879 236.671C280.879 235.164 280.929 233.657 280.781 232.151C280.484 228.47 279.101 224.567 275.988 222.319C273.469 220.442 270.109 220.022 267.071 220.541C264.7 220.961 262.477 222.22 260.945 224.098C258.821 226.716 258.006 230.15 257.981 233.46C257.956 241.858 257.981 250.282 257.956 258.68C257.981 259.915 256.943 261.027 255.708 261.101C253.979 261.175 252.275 261.101 250.546 261.126C249.73 261.126 248.94 261.175 248.15 261.052C247.236 260.854 246.494 260.088 246.297 259.199C246.297 238.079 246.297 216.984 246.297 195.864Z" fill="#002CB8" stroke="#002CB8" stroke-width="0.0231579"/>
<path opacity="0.52" d="M246.148 196.876C246.173 196.555 246.223 196.209 246.297 195.864C246.297 216.984 246.297 238.079 246.297 259.199C246.074 258.112 246.173 257.025 246.173 255.938C246.148 236.251 246.198 216.564 246.148 196.876Z" fill="#000B31" stroke="#000B31" stroke-width="0.0231579"/>
<path d="M29.167 197.025C34.2556 196.456 39.4924 196.876 44.334 198.556C50.1142 200.557 55.351 204.188 59.0068 209.104C59.7973 210.018 60.1678 211.376 59.6244 212.513C58.9821 213.995 57.2777 214.464 56.0179 215.304C54.5852 216.02 53.2019 217.404 51.4481 216.984C50.0895 216.811 49.4225 215.502 48.5827 214.563C45.3467 210.981 40.7028 208.807 35.9106 208.313C32.1066 207.943 28.179 208.363 24.6219 209.845C20.4473 211.599 16.9644 214.835 14.7906 218.787C12.6415 222.714 11.9499 227.309 12.3698 231.731C12.6662 235.238 13.8519 238.697 15.9022 241.587C18.7182 245.564 22.9175 248.553 27.6602 249.812C31.0197 250.652 34.6014 250.949 38.0103 250.084C42.3331 249.047 46.4583 246.898 49.5213 243.612C51.6951 241.29 53.1772 238.326 53.7947 235.214C53.8194 235.09 53.8689 234.818 53.8936 234.695C47.8663 234.72 41.8391 234.695 35.8365 234.72C34.5273 234.473 33.391 233.336 33.3169 231.978C33.2428 230.743 33.3169 229.507 33.2922 228.272C33.2922 227.383 33.1934 226.395 33.7122 225.605C34.305 224.592 35.466 224.048 36.6023 224.122C44.8527 224.122 53.1031 224.122 61.3535 224.122C63.5519 224.048 65.5034 226.074 65.3305 228.272C65.2317 231.385 65.3058 234.571 64.54 237.61C63.6261 241.488 62.0698 245.218 59.8467 248.528C57.994 251.319 55.4992 253.616 52.7573 255.518C49.1755 257.964 45.1738 259.767 40.9745 260.805C35.3425 262.237 29.3647 261.892 23.7821 260.385C16.0998 258.285 9.40561 253.073 5.23101 246.329C0.735278 239.116 -0.376306 230.125 1.35282 221.899C3.03254 213.797 8.24462 206.634 15.087 202.039C19.2616 199.248 24.1526 197.568 29.167 197.025Z" fill="#002CB8" stroke="#002CB8" stroke-width="0.0231579"/>
<path d="M101.172 196.95C105.668 196.531 110.287 196.852 114.61 198.21C121.18 200.236 127.183 204.46 130.987 210.24C131.728 211.327 131.382 213.007 130.221 213.674C128.591 214.662 126.887 215.6 125.232 216.588C124.491 217.008 123.725 217.552 122.836 217.428C121.996 217.404 121.329 216.811 120.884 216.144C118.266 212.241 113.992 209.598 109.447 208.634C105.742 207.893 101.839 208.066 98.2078 209.079C94.1814 210.215 90.5997 212.71 88.1048 216.02C85.7087 219.108 84.3501 222.912 84.029 226.79C83.6091 231.212 84.2513 235.831 86.3757 239.783C88.4259 243.612 91.7113 246.774 95.6882 248.503C99.3935 250.133 103.543 250.553 107.52 250.158C112.337 249.639 117.006 247.317 120.069 243.538C120.662 242.822 121.057 241.908 121.847 241.389C122.638 240.895 123.7 240.969 124.491 241.463C126.368 242.55 128.27 243.612 130.147 244.699C131.111 245.218 131.605 246.453 131.308 247.515C131.012 248.33 130.419 248.997 129.925 249.689C124.169 257.346 114.585 261.817 105.05 261.694C97.615 261.817 90.0315 259.52 84.2266 254.777C80.8425 252.035 77.9771 248.651 75.9268 244.798C73.7777 240.771 72.6168 236.276 72.345 231.706C72.0239 226.79 72.6168 221.751 74.3706 217.107C76.9396 210.388 81.9541 204.633 88.1789 201.026C92.1312 198.729 96.6269 197.395 101.172 196.95Z" fill="#002CB8" stroke="#002CB8" stroke-width="0.0231579"/>
<path d="M155.838 210.438C160.506 209.499 165.545 209.771 169.843 211.92C173.055 213.501 175.772 216.243 176.933 219.676C177.081 217.453 176.908 215.205 177.007 212.957C177.032 211.747 178.193 210.734 179.403 210.734C181.725 210.709 184.022 210.709 186.344 210.734C187.653 210.709 188.814 211.87 188.765 213.204C188.765 227.852 188.765 242.501 188.765 257.173C188.765 257.816 188.79 258.483 188.716 259.15C188.543 260.286 187.456 261.126 186.32 261.126C184.418 261.15 182.54 261.101 180.638 261.126C179.996 261.126 179.354 261.175 178.761 261.027C177.797 260.755 177.056 259.891 177.007 258.903C176.933 257.396 177.032 255.889 176.958 254.407C175.673 255.543 174.487 256.778 173.079 257.766C169.572 260.385 165.249 261.916 160.877 261.916C156.06 261.966 151.243 260.459 147.365 257.593C143.585 254.851 140.745 250.924 139.065 246.601C137.039 241.438 136.62 235.732 137.534 230.298C138.398 225.234 140.695 220.343 144.327 216.662C147.439 213.501 151.515 211.327 155.838 210.438ZM160.729 220.491C157.196 221.01 153.96 223.06 151.959 226.024C148.303 231.335 148.155 238.721 151.243 244.328C152.923 247.49 155.838 250.084 159.345 251.023C163.816 252.307 168.929 251.072 172.289 247.836C175.228 245.119 176.735 241.117 176.933 237.165C177.229 232.595 175.994 227.679 172.684 224.369C169.646 221.208 165.027 219.8 160.729 220.491Z" fill="#002CB8" stroke="#002CB8" stroke-width="0.0231579"/>
<path d="M214.307 210.067C219.494 209.598 224.978 210.265 229.449 213.081C233.45 215.551 236.094 219.923 236.662 224.567C236.81 225.926 235.624 227.26 234.266 227.21C232.117 227.235 229.943 227.21 227.818 227.235C227.077 227.26 226.287 227.161 225.744 226.642C224.978 226.025 224.928 224.987 224.533 224.147C223.792 222.418 222.211 221.158 220.433 220.59C218.555 219.997 216.554 219.973 214.628 220.22C213.047 220.442 211.416 220.936 210.33 222.171C209.144 223.48 209.095 225.703 210.255 227.037C211.466 228.445 213.269 229.137 214.974 229.754C219.84 231.385 224.978 232.249 229.572 234.645C232.24 236.029 234.71 238.054 236.069 240.771C238.218 245.045 237.847 250.43 235.13 254.357C232.833 257.766 229.103 259.915 225.2 260.978C220.433 262.262 215.295 262.237 210.552 260.903C206.921 259.866 203.487 257.939 200.943 255.148C198.942 252.974 197.509 250.232 197.04 247.293C196.793 245.909 198.003 244.526 199.411 244.526C201.807 244.501 204.204 244.526 206.575 244.526C207.711 244.477 208.773 245.243 209.07 246.329C209.44 247.589 210.181 248.75 211.194 249.59C213.244 251.319 216.036 251.937 218.679 251.764C220.729 251.665 222.878 251.245 224.484 249.886C225.867 248.725 226.386 246.552 225.398 244.995C224.533 243.686 223.002 242.995 221.569 242.402C217.419 240.846 213.022 240.129 208.872 238.573C205.834 237.461 202.82 235.93 200.646 233.46C197.485 229.903 196.818 224.542 198.473 220.17C199.856 216.564 202.894 213.822 206.328 212.216C208.823 211.006 211.565 210.339 214.307 210.067Z" fill="#002CB8" stroke="#002CB8" stroke-width="0.0231579"/>
<path opacity="0.75" d="M292.312 229.458C292.658 231.681 292.411 233.929 292.485 236.177C292.485 243.019 292.485 249.837 292.485 256.679C292.485 257.593 292.584 258.532 292.337 259.421C292.436 255.222 292.362 250.998 292.387 246.799C292.362 241.018 292.461 235.238 292.312 229.458Z" fill="#001966" stroke="#001966" stroke-width="0.0231579"/>
<path opacity="0.48" d="M280.781 232.151C280.929 233.657 280.88 235.164 280.88 236.671C280.88 244.18 280.904 251.69 280.88 259.199C280.633 257.964 280.781 256.704 280.756 255.444C280.756 247.688 280.732 239.932 280.781 232.151Z" fill="#000A2B" stroke="#000A2B" stroke-width="0.0231579"/>
<path opacity="0.27" d="M35.8359 234.72C41.8385 234.695 47.8657 234.72 53.893 234.695C53.8683 234.818 53.8189 235.09 53.7941 235.214C53.3001 234.942 52.732 234.843 52.1885 234.843C47.1741 234.892 42.1349 234.818 37.1204 234.892C36.6758 234.892 36.2559 234.794 35.8359 234.72Z" fill="#00030E" stroke="#00030E" stroke-width="0.0231579"/>
</svg>
