<svg width="213" height="47" viewBox="0 0 213 47" fill="none" xmlns="http://www.w3.org/2000/svg">
<path fill-rule="evenodd" clip-rule="evenodd" d="M99.6029 23.6972C98.8675 21.4694 97.2734 18.3451 94.2971 16.0065C92.4502 14.1596 92.0397 13.544 91.6293 10.8762C92.286 12.0254 92.587 12.1759 92.6554 12.1075C92.0397 10.3974 91.4651 6.1153 94.0918 2.66775C93.271 5.29445 93.2026 6.77198 93.271 7.1824C93.613 5.4723 95.0358 1.72378 97.9909 0.410423C96.5133 2.54462 96.0071 3.48859 95.9387 3.69381C96.6912 2.53094 98.8938 0.164169 101.685 0C99.4821 1.46837 99.4137 1.62339 99.277 1.93343C99.2609 1.97003 99.2438 2.00878 99.2221 2.05211C102.506 0.410423 105.994 1.02606 107.225 3.07817C108.457 5.13029 108.046 7.79803 103.942 9.23451C101.808 10.2195 101.137 11.013 101.069 11.2866C101.685 10.8078 103.326 9.89119 104.968 10.0554C102.711 10.4006 98.6065 12.1075 103.121 20.5211C103.304 21.0092 103.487 21.3875 103.654 21.7324C103.861 22.1593 103.916 22.3093 104.042 22.7785L104.147 22.9837L104.36 39.3152C104.36 39.9768 104.564 40.2313 105.073 40.2313C105.073 40.2313 105.454 40.2313 105.684 39.8751C105.684 40.5112 104.742 41.7072 102.834 41.7072C101.561 41.7072 100.671 41.1983 100.289 40.0532C99.5001 41.0965 98.355 41.7072 96.6501 41.7072C93.0876 41.7072 90.6448 38.9844 90.6448 34.913C90.6448 30.7653 93.1894 27.9917 96.9046 27.9917C98.3804 27.9917 99.3983 28.4497 100.136 29.1876V26.2733C100.132 26.2713 100.129 26.2692 100.125 26.2671C100.132 26.1414 100.124 25.9652 100.097 25.7464C99.9992 25.2593 99.8378 24.2149 99.8378 24.2149L99.6029 23.6972ZM100.136 35.5746C99.9836 38.3483 98.9403 40.1295 97.4644 40.1295C95.9122 40.1295 94.8689 38.0684 94.8689 34.7858C94.8689 31.7068 95.7849 29.5948 97.4135 29.5948C98.9148 29.5948 99.9836 31.3506 100.136 34.1497V35.5746Z" fill="url(#paint0_linear_128_660)"/>
<path d="M18.4109 25.1671C18.4109 23.8439 19.5051 22.7243 20.8283 22.7243C22.177 22.7243 23.2712 23.8439 23.2712 25.1671C23.2712 26.4903 22.177 27.5845 20.8283 27.5845C19.5051 27.5845 18.4109 26.4903 18.4109 25.1671Z" fill="url(#paint1_linear_128_660)"/>
<path d="M23.7546 40.7402L24.0091 40.9184V41.4527H17.673V40.9184L17.902 40.7402C18.4109 40.3585 18.7417 39.7224 18.7417 39.1117V31.4015C18.7417 30.7908 18.4109 30.1292 17.902 29.7729L17.673 29.5948V29.0604L21.8971 28.2716H22.9404V39.1117C22.9404 39.7224 23.2966 40.3585 23.7546 40.7402Z" fill="url(#paint2_linear_128_660)"/>
<path d="M6.33611 40.9184L6.08165 40.7402C5.62361 40.3585 5.26737 39.7224 5.26737 39.1117V33.0046H11.578V39.1117C11.578 39.7224 11.2727 40.3585 10.7638 40.7402L10.5347 40.9184V41.4527H16.8454V40.9184L16.6418 40.7402C16.1329 40.3585 15.8021 39.7224 15.8021 39.1117V25.3453C15.8021 24.7346 16.1329 24.073 16.6418 23.7167L16.8454 23.5131V23.0042H10.5347V23.5131L10.7638 23.7167C11.2727 24.073 11.578 24.7346 11.578 25.3453V31.4269H5.26737V25.3453C5.26737 24.7346 5.62361 24.073 6.08165 23.7167L6.33611 23.5131V23.0042H0V23.5131L0.229016 23.7167C0.73794 24.073 1.06874 24.7346 1.06874 25.3453V39.1117C1.06874 39.7224 0.73794 40.3585 0.229016 40.7402L0 40.9184V41.4527H6.33611V40.9184Z" fill="url(#paint3_linear_128_660)"/>
<path fill-rule="evenodd" clip-rule="evenodd" d="M31.3541 27.9917C27.4608 27.9917 24.6872 30.2055 24.6872 33.4881C24.6872 35.2184 25.476 36.6943 26.7992 37.7121C25.3997 39.0099 25.8577 40.4858 28.9876 41.2237C29.374 41.3075 29.7971 41.3811 30.2304 41.4564C32.1653 41.7929 34.3059 42.1652 34.3059 43.6411C34.3059 44.8116 33.0081 45.3969 31.0997 45.3969C29.522 45.3969 28.2497 44.9897 27.41 44.379C28.0461 44.0737 28.4532 43.4121 28.4532 42.6741C28.4532 41.6054 27.5881 40.7657 26.5448 40.7657C25.476 40.7657 24.6109 41.6054 24.6109 42.6741C24.6109 42.7759 24.6109 42.8523 24.6363 42.9541C25.1198 45.9058 29.0131 47 32.1175 47C36.0362 47 38.6063 45.2697 38.6063 42.6741C38.6063 39.5222 34.9166 39.4182 31.9232 39.3338C31.34 39.3174 30.7833 39.3017 30.2854 39.2643C28.3769 39.1371 27.5372 38.7045 27.6135 38.2465C28.6568 38.7809 29.9037 39.0862 31.3032 39.0862C35.2474 39.0862 37.8683 36.6943 37.8683 33.4372C37.8683 30.9943 36.367 29.1368 33.9496 28.3734C34.2041 27.9917 34.5603 27.61 35.0947 27.61C35.2474 27.61 35.4001 27.6354 35.5782 27.6863L35.6116 27.6959C35.7958 27.749 36.1084 27.839 36.4434 27.839C36.8505 27.839 37.3085 27.7118 37.5884 27.2792C38.1228 26.4649 37.792 24.76 35.8835 24.6328C33.9242 24.4801 32.5246 26.1341 32.7791 28.1189C32.3465 28.0171 31.863 27.9917 31.3541 27.9917ZM31.3032 37.5086C29.9037 37.5086 28.9113 35.8037 28.9113 33.4881C28.9113 31.1725 29.9037 29.5948 31.2778 29.5948C32.6519 29.5948 33.6697 31.1979 33.6697 33.5644C33.6697 35.8546 32.7282 37.5086 31.3032 37.5086Z" fill="url(#paint4_linear_128_660)"/>
<path d="M48.3957 32.9791V38.7809C48.3957 40.7911 49.4136 41.7072 51.093 41.7072C53.0015 41.7072 53.943 40.5112 53.943 39.8751C53.714 40.2313 53.3323 40.2313 53.3323 40.2313C52.8234 40.2313 52.6198 39.9768 52.6198 39.3152V32.7247C52.6198 29.9001 51.1439 27.9917 48.4212 27.9917C46.6145 27.9917 45.0877 28.8568 44.1716 30.2818V23.0042H43.1284L38.9043 23.7931V24.302L39.1333 24.5055C39.6422 24.8618 39.973 25.5234 39.973 26.1341V39.1117C39.973 39.7224 39.6422 40.3585 39.1333 40.7402L38.9043 40.9184V41.4527H45.2404V40.9184L44.9859 40.7402C44.5279 40.3585 44.1716 39.7224 44.1716 39.1117V32.7756C44.3498 31.0961 45.2149 30.0019 46.4109 30.0019C47.6832 30.0019 48.3957 31.1216 48.3957 32.9791Z" fill="url(#paint5_linear_128_660)"/>
<path d="M60.6781 40.9184L60.4236 40.7402C59.9656 40.3585 59.6094 39.7224 59.6094 39.1117V23.0042H58.5661L54.342 23.7931V24.302L54.571 24.5055C55.0799 24.8618 55.4107 25.5234 55.4107 26.1341V39.1117C55.4107 39.7224 55.0799 40.3585 54.571 40.7402L54.342 40.9184V41.4527H60.6781V40.9184Z" fill="url(#paint6_linear_128_660)"/>
<path fill-rule="evenodd" clip-rule="evenodd" d="M73.3692 32.9537C73.3692 28.9841 70.163 27.9917 67.313 27.9917C64.1068 27.9917 62.1983 29.2385 62.1983 30.9943C62.1983 32.1649 63.0889 33.0555 64.2086 33.0555C65.3282 33.0555 66.2188 32.1649 66.2188 31.0961C66.2188 30.46 65.9135 29.9001 65.4809 29.5439C65.6081 29.4421 65.8626 29.3658 66.2188 29.3658C67.1094 29.3658 68.4581 29.9256 68.967 31.605C68.8961 32.4461 67.6711 32.8715 66.2224 33.3746C64.0332 34.1349 61.3331 35.0726 61.3331 37.8903C61.3331 40.1804 63.1398 41.7072 65.4809 41.7072C67.0076 41.7072 68.3817 41.0456 69.2215 39.7733C69.5014 41.071 70.4683 41.7072 71.8424 41.7072C73.7509 41.7072 74.667 40.5112 74.667 39.8751C74.4634 40.2313 74.0817 40.2313 74.0817 40.2313C73.5728 40.2313 73.3692 39.9768 73.3692 39.3152V32.9537ZM69.1451 33.4881V36.5925C68.9925 38.0938 68.0764 39.0862 67.1603 39.0862C66.346 39.0862 65.5572 38.2974 65.5572 37.0251C65.5572 35.3994 66.8351 34.7427 68.0138 34.1369C68.4218 33.9272 68.818 33.7236 69.1451 33.4881Z" fill="url(#paint7_linear_128_660)"/>
<path d="M84.6967 32.9791V38.7809C84.6967 40.7911 85.7146 41.7072 87.394 41.7072C89.3025 41.7072 90.244 40.5112 90.244 39.8751C90.015 40.2313 89.6333 40.2313 89.6333 40.2313C89.1244 40.2313 88.9208 39.9768 88.9208 39.3152V32.7247C88.9208 29.9001 87.4449 27.9917 84.7222 27.9917C82.9155 27.9917 81.3887 28.8568 80.4727 30.2818V28.2716H79.4294L75.2053 29.0604V29.5948L75.4343 29.7729C75.9432 30.1292 76.274 30.7908 76.274 31.4015V39.1117C76.274 39.7224 75.9432 40.3585 75.4343 40.7402L75.2053 40.9184V41.4527H81.5414V40.9184L81.2869 40.7402C80.8289 40.3585 80.4727 39.7224 80.4727 39.1117V32.7756C80.6508 31.0961 81.516 30.0019 82.7119 30.0019C83.9842 30.0019 84.6967 31.1216 84.6967 32.9791Z" fill="url(#paint8_linear_128_660)"/>
<path fill-rule="evenodd" clip-rule="evenodd" d="M115.832 22.8521L116.061 23.0557C116.57 23.4119 116.901 24.0735 116.901 24.6842V38.4506C116.901 39.0613 116.57 39.6975 116.061 40.0792L115.832 40.2573V40.7917H122.168V40.2573L121.914 40.0792C121.456 39.6975 121.1 39.0613 121.1 38.4506V32.8779H125.629C129.217 32.8779 131.634 30.7913 131.634 27.5342C131.634 24.3025 129.37 22.3432 125.629 22.3432H115.832V22.8521ZM121.1 23.9208H123.771C126.062 23.9208 127.41 25.3204 127.41 27.5597C127.41 29.8753 125.985 31.3003 123.771 31.3003H121.1V23.9208Z" fill="url(#paint9_linear_128_660)"/>
<path fill-rule="evenodd" clip-rule="evenodd" d="M144.417 31.7074C144.417 29.3918 142.763 27.3306 138.997 27.3306C134.57 27.3306 131.592 30.1806 131.592 34.4047C131.592 38.4252 134.315 41.0462 138.03 41.0462C141.415 41.0462 143.577 38.8323 144.392 35.5243H143.857C143.603 36.4149 142.102 38.4252 139.659 38.4252C138.208 38.4252 137.089 37.7127 136.453 36.4658C137.19 36.644 137.903 36.7457 138.59 36.7457C141.949 36.7457 144.417 34.5828 144.417 31.7074ZM138.87 28.9338C141.313 28.9338 141.415 34.1248 136.071 35.6516C135.918 35.0663 135.816 34.4047 135.816 33.6922C135.816 30.8677 137.343 28.9338 138.87 28.9338Z" fill="url(#paint10_linear_128_660)"/>
<path d="M146.359 29.1882V38.1198C146.359 40.1301 147.351 41.0462 149.031 41.0462C150.964 41.0462 151.88 39.8502 151.88 39.214C151.677 39.5703 151.27 39.5703 151.27 39.5703C150.786 39.5703 150.557 39.3158 150.557 38.6542V29.1882H152.059V27.6105H150.557V25.244H148.98C148.98 26.7963 147.987 27.6105 146.359 27.6105H145.163V29.1882H146.359Z" fill="url(#paint11_linear_128_660)"/>
<path d="M152.548 28.1449L152.777 28.323C153.286 28.6793 153.617 29.3409 153.617 29.9516V35.8042C153.617 39.0613 155.322 41.0462 157.993 41.0462C161.887 41.0462 164.762 36.7457 165.042 31.2748C165.271 27.4324 163.973 26.7963 162.955 26.7963C161.81 26.7963 160.971 27.6105 160.971 28.6029C160.971 29.748 162.065 30.6641 163.515 30.486C163.592 35.6516 161.963 39.0613 159.52 39.0613C158.171 39.0613 157.815 37.9926 157.815 35.5498V27.6105H152.548V28.1449Z" fill="url(#paint12_linear_128_660)"/>
<path d="M169.033 22.0633C167.71 22.0633 166.615 23.1829 166.615 24.5061C166.615 25.8293 167.71 26.9235 169.033 26.9235C170.381 26.9235 171.476 25.8293 171.476 24.5061C171.476 23.1829 170.381 22.0633 169.033 22.0633Z" fill="url(#paint13_linear_128_660)"/>
<path d="M171.959 40.0792L172.214 40.2573V40.7917H165.878V40.2573L166.107 40.0792C166.615 39.6975 166.946 39.0613 166.946 38.4506V30.7404C166.946 30.1297 166.615 29.4681 166.107 29.1119L165.878 28.9338V28.3994L170.102 27.6105H171.145V38.4506C171.145 39.0613 171.501 39.6975 171.959 40.0792Z" fill="url(#paint14_linear_128_660)"/>
<path fill-rule="evenodd" clip-rule="evenodd" d="M179.915 41.0462C178.999 41.0462 178.006 40.9444 177.09 40.5881C176.734 40.4354 176.378 40.3591 176.022 40.3591C175.742 40.3591 175.462 40.41 175.233 40.5118L174.546 40.7917H173.502V25.4731C173.502 24.8624 173.172 24.2008 172.663 23.8445L172.434 23.6409V23.132L176.658 22.3432H177.701V28.5266C178.439 27.7887 179.482 27.3306 180.958 27.3306C184.673 27.3306 187.192 30.1043 187.192 34.252C187.192 38.3234 184.75 41.0462 179.915 41.0462ZM177.701 36.4913C177.777 37.6109 178.668 39.4685 180.246 39.4685C181.925 39.4685 182.994 37.4073 182.994 34.1248C182.994 31.0458 182.052 28.9338 180.424 28.9338C178.897 28.9338 177.828 30.7659 177.701 33.6413V36.4913Z" fill="url(#paint15_linear_128_660)"/>
<path fill-rule="evenodd" clip-rule="evenodd" d="M195.461 27.3306C199.227 27.3306 200.881 29.3918 200.881 31.7074C200.881 34.5828 198.413 36.7457 195.054 36.7457C194.367 36.7457 193.654 36.644 192.916 36.4658C193.552 37.7127 194.672 38.4252 196.123 38.4252C198.565 38.4252 200.067 36.4149 200.321 35.5243H200.856C200.041 38.8323 197.878 41.0462 194.494 41.0462C190.779 41.0462 188.056 38.4252 188.056 34.4047C188.056 30.1806 191.033 27.3306 195.461 27.3306ZM192.535 35.6516C197.878 34.1248 197.777 28.9338 195.334 28.9338C193.807 28.9338 192.28 30.8677 192.28 33.6922C192.28 34.4047 192.382 35.0663 192.535 35.6516Z" fill="url(#paint16_linear_128_660)"/>
<path d="M208.955 38.2471C208.955 37.1693 207.677 36.4085 206.249 35.5583C204.44 34.4814 202.39 33.261 202.39 31.0712C202.39 28.7811 204.527 27.3306 207.784 27.3306C211.118 27.3306 212.797 28.8829 212.797 30.3842C212.797 31.4275 212.009 32.2163 211.016 32.2163C209.998 32.2163 209.209 31.4275 209.209 30.4351C209.209 29.8753 209.464 29.3409 209.871 29.0355C209.667 28.8065 208.98 28.5775 208.242 28.5775C207.072 28.5775 206.41 29.1882 206.41 29.9262C206.41 30.9357 207.61 31.635 208.985 32.4369C210.834 33.5148 213.001 34.778 213.001 37.2292C213.001 39.6212 210.94 41.0462 207.479 41.0462C203.815 41.0462 201.754 39.4685 201.754 37.7381C201.754 36.5676 202.644 35.6516 203.789 35.6516C204.884 35.6516 205.8 36.5676 205.8 37.6872C205.8 38.3234 205.494 38.8578 205.062 39.2395C205.316 39.4176 205.774 39.6466 206.741 39.6466C208.268 39.6466 208.955 39.0613 208.955 38.2471Z" fill="url(#paint17_linear_128_660)"/>
<defs>
<linearGradient id="paint0_linear_128_660" x1="-6" y1="109.5" x2="362.5" y2="-81" gradientUnits="userSpaceOnUse">
<stop stop-color="#235840"/>
<stop offset="1" stop-color="#8FCB9B"/>
</linearGradient>
<linearGradient id="paint1_linear_128_660" x1="-6" y1="109.5" x2="362.5" y2="-81" gradientUnits="userSpaceOnUse">
<stop stop-color="#235840"/>
<stop offset="1" stop-color="#8FCB9B"/>
</linearGradient>
<linearGradient id="paint2_linear_128_660" x1="-6" y1="109.5" x2="362.5" y2="-81" gradientUnits="userSpaceOnUse">
<stop stop-color="#235840"/>
<stop offset="1" stop-color="#8FCB9B"/>
</linearGradient>
<linearGradient id="paint3_linear_128_660" x1="-6" y1="109.5" x2="362.5" y2="-81" gradientUnits="userSpaceOnUse">
<stop stop-color="#235840"/>
<stop offset="1" stop-color="#8FCB9B"/>
</linearGradient>
<linearGradient id="paint4_linear_128_660" x1="-6" y1="109.5" x2="362.5" y2="-81" gradientUnits="userSpaceOnUse">
<stop stop-color="#235840"/>
<stop offset="1" stop-color="#8FCB9B"/>
</linearGradient>
<linearGradient id="paint5_linear_128_660" x1="-6" y1="109.5" x2="362.5" y2="-81" gradientUnits="userSpaceOnUse">
<stop stop-color="#235840"/>
<stop offset="1" stop-color="#8FCB9B"/>
</linearGradient>
<linearGradient id="paint6_linear_128_660" x1="-6" y1="109.5" x2="362.5" y2="-81" gradientUnits="userSpaceOnUse">
<stop stop-color="#235840"/>
<stop offset="1" stop-color="#8FCB9B"/>
</linearGradient>
<linearGradient id="paint7_linear_128_660" x1="-6" y1="109.5" x2="362.5" y2="-81" gradientUnits="userSpaceOnUse">
<stop stop-color="#235840"/>
<stop offset="1" stop-color="#8FCB9B"/>
</linearGradient>
<linearGradient id="paint8_linear_128_660" x1="-6" y1="109.5" x2="362.5" y2="-81" gradientUnits="userSpaceOnUse">
<stop stop-color="#235840"/>
<stop offset="1" stop-color="#8FCB9B"/>
</linearGradient>
<linearGradient id="paint9_linear_128_660" x1="-6" y1="109.5" x2="362.5" y2="-81" gradientUnits="userSpaceOnUse">
<stop stop-color="#235840"/>
<stop offset="1" stop-color="#8FCB9B"/>
</linearGradient>
<linearGradient id="paint10_linear_128_660" x1="-6" y1="109.5" x2="362.5" y2="-81" gradientUnits="userSpaceOnUse">
<stop stop-color="#235840"/>
<stop offset="1" stop-color="#8FCB9B"/>
</linearGradient>
<linearGradient id="paint11_linear_128_660" x1="-6" y1="109.5" x2="362.5" y2="-81" gradientUnits="userSpaceOnUse">
<stop stop-color="#235840"/>
<stop offset="1" stop-color="#8FCB9B"/>
</linearGradient>
<linearGradient id="paint12_linear_128_660" x1="-6" y1="109.5" x2="362.5" y2="-81" gradientUnits="userSpaceOnUse">
<stop stop-color="#235840"/>
<stop offset="1" stop-color="#8FCB9B"/>
</linearGradient>
<linearGradient id="paint13_linear_128_660" x1="-6" y1="109.5" x2="362.5" y2="-81" gradientUnits="userSpaceOnUse">
<stop stop-color="#235840"/>
<stop offset="1" stop-color="#8FCB9B"/>
</linearGradient>
<linearGradient id="paint14_linear_128_660" x1="-6" y1="109.5" x2="362.5" y2="-81" gradientUnits="userSpaceOnUse">
<stop stop-color="#235840"/>
<stop offset="1" stop-color="#8FCB9B"/>
</linearGradient>
<linearGradient id="paint15_linear_128_660" x1="-6" y1="109.5" x2="362.5" y2="-81" gradientUnits="userSpaceOnUse">
<stop stop-color="#235840"/>
<stop offset="1" stop-color="#8FCB9B"/>
</linearGradient>
<linearGradient id="paint16_linear_128_660" x1="-6" y1="109.5" x2="362.5" y2="-81" gradientUnits="userSpaceOnUse">
<stop stop-color="#235840"/>
<stop offset="1" stop-color="#8FCB9B"/>
</linearGradient>
<linearGradient id="paint17_linear_128_660" x1="-6" y1="109.5" x2="362.5" y2="-81" gradientUnits="userSpaceOnUse">
<stop stop-color="#235840"/>
<stop offset="1" stop-color="#8FCB9B"/>
</linearGradient>
</defs>
</svg>
