<svg width="15" height="14" viewBox="0 0 15 14" fill="none" xmlns="http://www.w3.org/2000/svg">
<path d="M7.00565 13.4219C6.78195 13.4219 6.55825 13.4073 6.33455 13.3781C6.11085 13.349 5.88715 13.3101 5.66346 13.2614C4.80757 13.8936 3.86667 14.1199 2.84077 13.9401C1.81487 13.7604 1.0292 13.2132 0.483765 12.2986C0.0464827 11.5788 -0.0943501 10.8056 0.0612663 9.9789C0.216883 9.15219 0.591335 8.45678 1.18462 7.89267V7.8489C0.581609 7.29452 0.207157 6.61136 0.0612663 5.79943C-0.0846241 4.98751 0.0515403 4.22148 0.469759 3.50137C0.829622 2.88863 1.32565 2.42431 1.95784 2.10841C2.59003 1.79251 3.25627 1.68299 3.95654 1.77986C4.26777 1.22548 4.69338 0.790337 5.23337 0.474436C5.77336 0.158535 6.36412 0.000389757 7.00565 7.16026e-07C7.64718 -0.000388325 8.23813 0.157757 8.77851 0.474436C9.31888 0.791116 9.7443 1.22626 10.0548 1.77986C10.755 1.6826 11.4213 1.79212 12.0535 2.10841C12.6856 2.4247 13.1817 2.88902 13.5415 3.50137C13.9598 4.2211 14.0959 4.98712 13.95 5.79943C13.8041 6.61175 13.4297 7.29491 12.8267 7.8489V7.89267C13.42 8.45678 13.7944 9.15219 13.95 9.9789C14.1056 10.8056 13.9646 11.5788 13.5269 12.2986C12.9823 13.2128 12.1968 13.76 11.1705 13.9401C10.1442 14.1202 9.20334 13.894 8.34784 13.2614C8.12414 13.3101 7.90044 13.349 7.67674 13.3781C7.45304 13.4073 7.22935 13.4219 7.00565 13.4219ZM7.00565 12.2548C8.30893 12.2548 9.41284 11.8025 10.3174 10.898C11.2219 9.99349 11.6741 8.88959 11.6741 7.5863C11.6741 7.30424 11.6524 7.03425 11.6088 6.77632C11.5652 6.51838 11.4995 6.26803 11.4115 6.02527C11.1295 6.21979 10.8182 6.37055 10.4778 6.47753C10.1374 6.58452 9.78243 6.63801 9.41284 6.63801C8.42078 6.63801 7.57715 6.2904 6.88193 5.59519C6.18672 4.89997 5.83891 4.05614 5.83852 3.0637C4.82702 3.31657 3.99058 3.86123 3.32921 4.69767C2.66784 5.53411 2.33716 6.49698 2.33716 7.5863C2.33716 8.88959 2.78942 9.99349 3.69394 10.898C4.59846 11.8025 5.70236 12.2548 7.00565 12.2548ZM5.25496 8.89931C5.05072 8.89931 4.87798 8.8287 4.73676 8.68748C4.59554 8.54626 4.52512 8.37372 4.52551 8.16986C4.5259 7.966 4.59651 7.79327 4.73734 7.65166C4.87818 7.51005 5.05072 7.43963 5.25496 7.44041C5.45921 7.44119 5.63194 7.5118 5.77317 7.65224C5.91439 7.79269 5.9848 7.96522 5.98441 8.16986C5.98403 8.3745 5.91341 8.54723 5.77258 8.68806C5.63175 8.8289 5.45921 8.89931 5.25496 8.89931ZM8.75633 8.89931C8.55208 8.89931 8.37935 8.8287 8.23813 8.68748C8.09691 8.54626 8.02649 8.37372 8.02688 8.16986C8.02727 7.966 8.09788 7.79327 8.23871 7.65166C8.37955 7.51005 8.55208 7.43963 8.75633 7.44041C8.96058 7.44119 9.13331 7.5118 9.27453 7.65224C9.41576 7.79269 9.48617 7.96522 9.48578 8.16986C9.48539 8.3745 9.41478 8.54723 9.27395 8.68806C9.13312 8.8289 8.96058 8.89931 8.75633 8.89931Z" fill="#235840"/>
</svg>
