<svg width="471" height="97" viewBox="0 0 471 97" fill="none" xmlns="http://www.w3.org/2000/svg">
<path d="M27.6735 30.3082C27.0074 32.7191 26.569 35.8545 27.7578 37.7358C29.735 40.8712 33.4237 38.9814 35.3082 37.2146C37.6859 34.9944 38.2339 30.8887 38.2297 27.7956C38.0189 29.0116 37.454 30.6938 37.0198 32.0623C36.4506 33.8504 34.7644 36.113 33.0401 37.1002C31.8049 37.812 30.477 37.9264 29.267 37.1002C26.8388 35.4477 27.7452 31.7996 28.1752 28.9481C27.9559 29.4989 27.7494 30.0328 27.6735 30.3082Z" fill="url(#paint0_linear_213_665)"/>
<path d="M59.4348 45.6294C59.3421 45.9895 59.2578 46.3285 59.1566 46.6675C58.8615 47.6505 58.2165 48.0615 57.0951 48.6928C56.8801 48.8157 56.6651 48.9428 56.4416 49.0741C56.3573 47.5149 56.2351 45.515 56.2857 44.6167C56.3826 42.744 57.0319 41.3711 58.95 44.4769C59.1229 44.7523 59.3252 45.032 59.5191 45.3158C59.4896 45.4218 59.4643 45.5235 59.4348 45.6294ZM89.278 25.2068C87.4104 21.5163 84.6828 18.3215 81.5716 15.6268C76.4917 11.2287 70.8637 9 64.8394 9C56.2688 9 49.2327 13.5464 45.9993 16.0547C42.77 13.5464 35.7298 9 27.1592 9C21.1391 9 15.5111 11.2287 10.4269 15.6268C7.31572 18.3215 4.59236 21.5163 2.72479 25.2068C0.616924 29.376 -0.247302 33.8419 0.0604477 38.545C0.380842 43.4092 1.90694 48.1293 4.26775 52.396C4.86217 52.1163 5.44394 51.8155 5.98777 51.4723C10.0517 48.9258 13.5381 45.5447 17.0414 42.2948C19.4612 40.0492 21.6534 37.884 23.5674 35.1681C26.3455 31.2319 27.3447 25.8974 31.2611 23.1603C34.132 21.1519 40.0593 21.1349 43.4361 22.0332C45.2615 22.5162 46.2311 23.6941 47.3694 25.1263C48.4275 26.4525 50.0253 27.4736 51.5978 28.0329C53.3051 28.643 55.0209 28.8549 56.6482 29.6896C58.5664 30.6726 58.2924 31.9479 57.4576 33.6894C56.6524 35.363 56.644 37.562 54.5741 38.0747C52.8372 38.5069 51.0413 38.8331 49.296 39.3458C45.4091 40.4856 42.496 42.3796 42.2894 46.8581C42.1925 48.9682 42.7489 50.8876 42.7489 52.9765C42.7489 55.1543 42.5719 57.1584 42.066 59.2092C41.5938 61.1201 41.636 63.0946 40.9868 64.9504C40.3123 66.8698 39.1656 68.6154 38.0779 70.3187C36.0291 73.5347 35.2492 76.3142 35.2576 80.1953C35.2576 80.3352 35.2618 80.4792 35.266 80.6275C39.9286 83.9409 43.7776 86.5255 45.5693 87.7119C45.7295 87.822 45.8728 87.9153 45.9993 88C46.1257 87.9153 46.2733 87.822 46.4335 87.7119C48.6299 86.2586 53.9164 82.6994 60.0124 78.2759C59.3927 76.3947 59.1777 74.2677 59.0132 72.6364C58.7477 69.9925 60.0461 64.6496 57.386 62.9971C56.4079 62.387 54.65 62.942 53.5834 62.226C52.4241 61.4421 51.4334 60.332 50.8432 59.0566C50.4427 58.1923 49.688 57.0567 49.6965 56.0483C49.7091 54.6331 51.3153 54.2094 52.2891 53.5739C53.634 52.701 55.1348 51.0655 56.4965 50.1376C56.5555 50.0995 56.6145 50.0529 56.6735 50.0147C58.0563 49.1292 59.5149 48.6928 60.0377 46.9302C60.0714 46.8073 60.1051 46.6844 60.1388 46.5615C60.3707 45.7141 60.5604 44.8582 60.8682 44.0363C61.1085 43.3922 61.4668 42.388 61.9895 42.388C62.175 42.388 62.3816 42.5152 62.6135 42.8287C63.3765 43.8752 63.8866 45.5319 64.2914 46.6717C64.5822 47.4979 64.6075 48.3623 64.9448 49.1292C65.2146 49.7478 65.868 50.3325 66.239 50.8791C68.2246 53.8154 68.9118 57.6838 71.437 60.2896C73.1612 62.0649 75.4799 63.1835 77.6679 64.353C80.2099 62.1031 82.6466 59.76 84.6997 57.0567C88.7594 51.7053 91.4997 45.2608 91.9381 38.545C92.2501 33.8419 91.3858 29.376 89.278 25.2068Z" fill="url(#paint1_linear_213_665)"/>
<path d="M129.473 35.4771H138.617C142.434 35.4771 145.283 36.2589 147.165 37.8227C149.046 39.3599 149.987 41.5994 149.987 44.5414C149.987 47.5098 149.06 49.8156 147.204 51.4589C145.349 53.1021 142.646 53.9237 139.094 53.9237H134.721V63.147H129.473V35.4771ZM138.657 49.3518C140.645 49.3518 142.102 48.994 143.03 48.2784C143.984 47.5628 144.461 46.3569 144.461 44.6606C144.461 43.0174 143.997 41.8512 143.07 41.1621C142.142 40.473 140.658 40.1285 138.617 40.1285H134.721V49.3518H138.657Z" fill="#345E7D"/>
<path d="M154.565 35.4771H159.813V63.147H154.565V35.4771Z" fill="#345E7D"/>
<path d="M190.477 35.4771V63.147H185.229L172.11 44.8594V63.147H166.862V35.4771H172.11L185.229 53.7249V35.4771H190.477Z" fill="#345E7D"/>
<path d="M203.112 40.0887V47.0062H215.039V51.3396H203.112V58.5354H215.913V63.147H197.864V35.4771H215.913V40.0887H203.112Z" fill="#345E7D"/>
<path d="M231.086 63.6241C229.602 63.6241 228.025 63.4253 226.355 63.0278C224.685 62.6302 223.108 62.0869 221.624 61.3978V56.3091C225.069 58.1643 228.144 59.092 230.847 59.092C232.199 59.092 233.286 58.8004 234.107 58.2173C234.955 57.6343 235.379 56.8126 235.379 55.7525C235.379 55.0104 235.141 54.3875 234.664 53.884C234.213 53.3539 233.643 52.9298 232.954 52.6118C232.265 52.2672 231.285 51.8564 230.012 51.3794C228.29 50.7433 226.885 50.1337 225.798 49.5506C224.712 48.9675 223.784 48.1459 223.015 47.0857C222.247 45.9991 221.863 44.6076 221.863 42.9114C221.863 40.42 222.724 38.4852 224.447 37.1071C226.169 35.7024 228.528 35 231.523 35C232.928 35 234.306 35.159 235.658 35.4771C237.009 35.7686 238.255 36.2059 239.395 36.789V41.7585C236.718 40.2743 234.134 39.5322 231.642 39.5322C230.264 39.5322 229.178 39.7839 228.382 40.2875C227.614 40.7646 227.23 41.4537 227.23 42.3548C227.23 43.2559 227.627 43.9715 228.422 44.5016C229.244 45.0052 230.503 45.5618 232.199 46.1714C233.975 46.834 235.432 47.47 236.572 48.0796C237.712 48.6892 238.692 49.5771 239.514 50.7433C240.362 51.8829 240.813 53.3671 240.866 55.1959C240.866 57.8198 239.978 59.8871 238.202 61.3978C236.426 62.882 234.054 63.6241 231.086 63.6241Z" fill="#345E7D"/>
<path d="M280.459 35.4771L270.361 63.147H264.239L254.141 35.4771H259.826L267.419 57.5812L274.973 35.4771H280.459Z" fill="#345E7D"/>
<path d="M289.77 40.0887V47.0062H301.697V51.3396H289.77V58.5354H302.571V63.147H284.522V35.4771H302.571V40.0887H289.77Z" fill="#345E7D"/>
<path d="M315.16 40.2875H307.288V35.4771H328.279V40.2875H320.408V63.147H315.16V40.2875Z" fill="#345E7D"/>
<path d="M357.775 63.6241C354.727 63.6241 352.103 63.041 349.903 61.8749C347.73 60.7087 346.06 59.0522 344.894 56.9054C343.754 54.7321 343.185 52.201 343.185 49.3121C343.185 46.4231 343.768 43.9053 344.934 41.7585C346.1 39.5852 347.796 37.9154 350.023 36.7493C352.249 35.5831 354.912 35 358.013 35C359.312 35 360.584 35.1325 361.83 35.3976C363.102 35.6361 364.242 36.0071 365.249 36.5107V41.3609H365.09C364.083 40.7778 362.983 40.3405 361.79 40.049C360.624 39.7574 359.511 39.6117 358.451 39.6117C355.429 39.6117 353.044 40.4465 351.295 42.1163C349.572 43.786 348.711 46.1846 348.711 49.3121C348.711 52.413 349.559 54.7983 351.255 56.4681C352.951 58.1378 355.27 58.9727 358.212 58.9727C359.352 58.9727 360.505 58.8004 361.671 58.4559C362.864 58.0848 364.003 57.568 365.09 56.9054H365.249V61.7954C363.129 63.0145 360.637 63.6241 357.775 63.6241Z" fill="#345E7D"/>
<path d="M371.957 35.4771H377.205V58.5354H388.853V63.147H371.957V35.4771Z" fill="#345E7D"/>
<path d="M393.865 35.4771H399.113V63.147H393.865V35.4771Z" fill="#345E7D"/>
<path d="M429.777 35.4771V63.147H424.529L411.41 44.8594V63.147H406.162V35.4771H411.41L424.529 53.7249V35.4771H429.777Z" fill="#345E7D"/>
<path d="M436.806 35.4771H442.054V63.147H436.806V35.4771Z" fill="#345E7D"/>
<path d="M462.739 63.6241C459.691 63.6241 457.067 63.041 454.868 61.8749C452.694 60.7087 451.025 59.0522 449.858 56.9054C448.719 54.7321 448.149 52.201 448.149 49.3121C448.149 46.4231 448.732 43.9053 449.898 41.7585C451.064 39.5852 452.761 37.9154 454.987 36.7493C457.213 35.5831 459.877 35 462.978 35C464.277 35 465.549 35.1325 466.794 35.3976C468.067 35.6361 469.206 36.0071 470.213 36.5107V41.3609H470.054C469.047 40.7778 467.947 40.3405 466.755 40.049C465.588 39.7574 464.475 39.6117 463.415 39.6117C460.394 39.6117 458.008 40.4465 456.259 42.1163C454.536 43.786 453.675 46.1846 453.675 49.3121C453.675 52.413 454.523 54.7983 456.219 56.4681C457.916 58.1378 460.235 58.9727 463.177 58.9727C464.316 58.9727 465.469 58.8004 466.635 58.4559C467.828 58.0848 468.968 57.568 470.054 56.9054H470.213V61.7954C468.093 63.0145 465.602 63.6241 462.739 63.6241Z" fill="#345E7D"/>
<defs>
<linearGradient id="paint0_linear_213_665" x1="16.1884" y1="73.6745" x2="114.83" y2="9.45615" gradientUnits="userSpaceOnUse">
<stop stop-color="#235840"/>
<stop offset="1" stop-color="#5B9279"/>
</linearGradient>
<linearGradient id="paint1_linear_213_665" x1="16.1884" y1="73.6745" x2="114.83" y2="9.45615" gradientUnits="userSpaceOnUse">
<stop stop-color="#235840"/>
<stop offset="1" stop-color="#5B9279"/>
</linearGradient>
</defs>
</svg>
