<svg width="15" height="14" viewBox="0 0 15 14" fill="none" xmlns="http://www.w3.org/2000/svg">
<path d="M8.86408 1.45684C8.88286 1.53435 8.91967 1.60633 8.97152 1.66694C9.02336 1.72754 9.08877 1.77505 9.16244 1.80561C9.23611 1.83617 9.31594 1.84891 9.39546 1.8428C9.47498 1.83668 9.55193 1.81189 9.62006 1.77043C11.3273 0.730957 13.281 2.68391 12.2415 4.39117C12.2 4.45925 12.1752 4.53615 12.1691 4.61563C12.1629 4.69511 12.1756 4.77491 12.2061 4.84857C12.2366 4.92222 12.284 4.98765 12.3445 5.03953C12.405 5.09141 12.4769 5.12828 12.5544 5.14715C14.4968 5.61823 14.4968 8.38107 12.5544 8.85285C12.4769 8.87163 12.4049 8.90844 12.3443 8.96029C12.2837 9.01213 12.2362 9.07754 12.2056 9.15121C12.1751 9.22488 12.1623 9.30471 12.1684 9.38423C12.1745 9.46375 12.1993 9.5407 12.2408 9.60883C13.2803 11.3161 11.3273 13.2697 9.62006 12.2303C9.55198 12.1888 9.47508 12.164 9.3956 12.1578C9.31612 12.1517 9.23632 12.1644 9.16266 12.1948C9.08901 12.2253 9.02358 12.2728 8.9717 12.3333C8.91982 12.3938 8.88295 12.4657 8.86408 12.5432C8.393 14.4856 5.63016 14.4856 5.15838 12.5432C5.1396 12.4657 5.10279 12.3937 5.05094 12.3331C4.9991 12.2725 4.93369 12.2249 4.86002 12.1944C4.78635 12.1638 4.70652 12.1511 4.627 12.1572C4.54748 12.1633 4.47053 12.1881 4.4024 12.2296C2.69514 13.269 0.741487 11.3161 1.78096 9.60883C1.82242 9.54075 1.84724 9.46385 1.85339 9.38437C1.85955 9.30489 1.84687 9.22509 1.81638 9.15143C1.7859 9.07778 1.73847 9.01235 1.67795 8.96047C1.61743 8.90859 1.54552 8.87172 1.46807 8.85285C-0.474382 8.38177 -0.474382 5.61893 1.46807 5.14715C1.54558 5.12837 1.61756 5.09156 1.67817 5.03971C1.73877 4.98787 1.78628 4.92246 1.81684 4.84879C1.8474 4.77512 1.86014 4.69528 1.85403 4.61577C1.84791 4.53625 1.82312 4.4593 1.78166 4.39117C0.742187 2.68391 2.69514 0.730257 4.4024 1.76973C4.47041 1.81151 4.54735 1.83658 4.62692 1.84289C4.70649 1.8492 4.78642 1.83658 4.86017 1.80606C4.93392 1.77553 4.9994 1.72797 5.05123 1.66727C5.10306 1.60657 5.13978 1.53446 5.15838 1.45684C5.62946 -0.485613 8.3923 -0.485613 8.86408 1.45684ZM7.01123 4.90005C6.45429 4.90005 5.92016 5.1213 5.52634 5.51511C5.13253 5.90893 4.91128 6.44306 4.91128 7C4.91128 7.55694 5.13253 8.09107 5.52634 8.48489C5.92016 8.8787 6.45429 9.09995 7.01123 9.09995C7.56817 9.09995 8.1023 8.8787 8.49612 8.48489C8.88993 8.09107 9.11118 7.55694 9.11118 7C9.11118 6.44306 8.88993 5.90893 8.49612 5.51511C8.1023 5.1213 7.56817 4.90005 7.01123 4.90005Z" fill="#235840"/>
</svg>
